G04*
G04 #@! TF.GenerationSoftware,Altium Limited,Altium Designer,22.4.2 (48)*
G04*
G04 Layer_Color=65535*
%FSLAX26Y26*%
%MOIN*%
G70*
G04*
G04 #@! TF.SameCoordinates,2AD52CA1-F133-4533-A991-55CBF92103CF*
G04*
G04*
G04 #@! TF.FilePolarity,Positive*
G04*
G01*
G75*
%ADD10C,0.009842*%
%ADD11C,0.007874*%
%ADD12C,0.010000*%
D10*
X401413Y509567D02*
G03*
X401413Y509567I-4921J0D01*
G01*
X1064921Y853465D02*
G03*
X1064921Y853465I-4921J0D01*
G01*
X64921D02*
G03*
X64921Y853465I-4921J0D01*
G01*
D11*
X461575Y555827D02*
X658425D01*
X461575Y284173D02*
X658425D01*
X220665Y544445D02*
X319335D01*
X220665Y615555D02*
X319335D01*
X813110Y514528D02*
X880039D01*
X813110Y455472D02*
X880039D01*
X220665Y144445D02*
X319335D01*
X220665Y215555D02*
X319335D01*
X220665Y224445D02*
X319335D01*
X220665Y295555D02*
X319335D01*
X220665Y624445D02*
X319335D01*
X220665Y695555D02*
X319335D01*
X803074Y374328D02*
X913787D01*
X803074Y445672D02*
X913787D01*
X1008032Y829842D02*
X1111968D01*
X1008032Y10158D02*
Y829842D01*
Y10158D02*
X1111968D01*
Y829842D01*
X8031D02*
X111969D01*
X8031Y10158D02*
Y829842D01*
Y10158D02*
X111969D01*
Y829842D01*
D12*
X413387Y634992D02*
Y585008D01*
X438379D01*
X446710Y593339D01*
Y626661D01*
X438379Y634992D01*
X413387D01*
X463371Y585008D02*
Y634992D01*
X488363D01*
X496694Y626661D01*
Y610000D01*
X488363Y601669D01*
X463371D01*
X480032D02*
X496694Y585008D01*
X513355Y634992D02*
Y601669D01*
X530016Y585008D01*
X546678Y601669D01*
Y634992D01*
X563339Y626661D02*
X571669Y634992D01*
X588331D01*
X596661Y626661D01*
Y618331D01*
X588331Y610000D01*
X596661Y601669D01*
Y593339D01*
X588331Y585008D01*
X571669D01*
X563339Y593339D01*
Y601669D01*
X571669Y610000D01*
X563339Y618331D01*
Y626661D01*
X571669Y610000D02*
X588331D01*
X613322Y626661D02*
X621653Y634992D01*
X638314D01*
X646645Y626661D01*
Y618331D01*
X638314Y610000D01*
X646645Y601669D01*
Y593339D01*
X638314Y585008D01*
X621653D01*
X613322Y593339D01*
Y601669D01*
X621653Y610000D01*
X613322Y618331D01*
Y626661D01*
X621653Y610000D02*
X638314D01*
X663306Y626661D02*
X671637Y634992D01*
X688298D01*
X696629Y626661D01*
Y618331D01*
X688298Y610000D01*
X679968D01*
X688298D01*
X696629Y601669D01*
Y593339D01*
X688298Y585008D01*
X671637D01*
X663306Y593339D01*
X713290Y626661D02*
X721621Y634992D01*
X738282D01*
X746613Y626661D01*
Y618331D01*
X738282Y610000D01*
X729951D01*
X738282D01*
X746613Y601669D01*
Y593339D01*
X738282Y585008D01*
X721621D01*
X713290Y593339D01*
X221447Y470010D02*
Y529990D01*
X251438D01*
X261434Y519994D01*
Y500000D01*
X251438Y490003D01*
X221447D01*
X241441D02*
X261434Y470010D01*
X321415D02*
X281428D01*
X321415Y509997D01*
Y519994D01*
X311418Y529990D01*
X291425D01*
X281428Y519994D01*
X846475Y275663D02*
X836478Y285660D01*
X816484D01*
X806487Y275663D01*
Y235676D01*
X816484Y225679D01*
X836478D01*
X846475Y235676D01*
X866468Y275663D02*
X876465Y285660D01*
X896458D01*
X906455Y275663D01*
Y265666D01*
X896458Y255669D01*
X886462D01*
X896458D01*
X906455Y245673D01*
Y235676D01*
X896458Y225679D01*
X876465D01*
X866468Y235676D01*
X843150Y574994D02*
X833153Y584990D01*
X813159D01*
X803163Y574994D01*
Y535006D01*
X813159Y525010D01*
X833153D01*
X843150Y535006D01*
X863143Y525010D02*
X883137D01*
X873140D01*
Y584990D01*
X863143Y574994D01*
X218585Y70010D02*
Y129990D01*
X248575D01*
X258572Y119993D01*
Y100000D01*
X248575Y90003D01*
X218585D01*
X238579D02*
X258572Y70010D01*
X308556D02*
Y129990D01*
X278566Y100000D01*
X318553D01*
X220016Y310010D02*
Y369990D01*
X250006D01*
X260003Y359993D01*
Y340000D01*
X250006Y330003D01*
X220016D01*
X240010D02*
X260003Y310010D01*
X279997Y359993D02*
X289994Y369990D01*
X309987D01*
X319984Y359993D01*
Y349997D01*
X309987Y340000D01*
X299990D01*
X309987D01*
X319984Y330003D01*
Y320007D01*
X309987Y310010D01*
X289994D01*
X279997Y320007D01*
X230013Y710010D02*
Y769990D01*
X260003D01*
X270000Y759994D01*
Y740000D01*
X260003Y730003D01*
X230013D01*
X250006D02*
X270000Y710010D01*
X289994D02*
X309987D01*
X299990D01*
Y769990D01*
X289994Y759994D01*
M02*
