G04*
G04 #@! TF.GenerationSoftware,Altium Limited,Altium Designer,22.4.2 (48)*
G04*
G04 Layer_Physical_Order=1*
G04 Layer_Color=255*
%FSLAX25Y25*%
%MOIN*%
G70*
G04*
G04 #@! TF.SameCoordinates,1BD04265-7303-4BE0-B696-FC490152C648*
G04*
G04*
G04 #@! TF.FilePolarity,Positive*
G04*
G01*
G75*
%ADD12C,0.01000*%
%ADD14R,0.03150X0.03740*%
%ADD15R,0.03150X0.03937*%
G04:AMPARAMS|DCode=16|XSize=65.17mil|YSize=14.99mil|CornerRadius=7.5mil|HoleSize=0mil|Usage=FLASHONLY|Rotation=0.000|XOffset=0mil|YOffset=0mil|HoleType=Round|Shape=RoundedRectangle|*
%AMROUNDEDRECTD16*
21,1,0.06517,0.00000,0,0,0.0*
21,1,0.05018,0.01499,0,0,0.0*
1,1,0.01499,0.02509,0.00000*
1,1,0.01499,-0.02509,0.00000*
1,1,0.01499,-0.02509,0.00000*
1,1,0.01499,0.02509,0.00000*
%
%ADD16ROUNDEDRECTD16*%
%ADD17R,0.06517X0.01499*%
%ADD18R,0.03740X0.04134*%
%ADD19R,0.02559X0.02756*%
%ADD20R,0.04758X0.03985*%
%ADD23R,0.09685X0.10906*%
%ADD25C,0.06181*%
%ADD26R,0.06181X0.06181*%
%ADD27C,0.02000*%
%ADD28C,0.01500*%
G36*
X112000Y0D02*
X0D01*
Y87000D01*
X112000D01*
Y0D01*
D02*
G37*
%LPC*%
G36*
X109591Y80590D02*
X102409D01*
Y75929D01*
X98622D01*
X98232Y75851D01*
X97901Y75630D01*
X74247Y51976D01*
X70356D01*
X70120Y52134D01*
X69633Y52231D01*
X64614D01*
X64127Y52134D01*
X63714Y51858D01*
X63437Y51444D01*
X63340Y50957D01*
X63437Y50469D01*
X63714Y50056D01*
X63830Y49978D01*
Y49376D01*
X63714Y49299D01*
X63437Y48885D01*
X63340Y48398D01*
X63437Y47910D01*
X63714Y47497D01*
X63830Y47419D01*
Y46817D01*
X63714Y46739D01*
X63437Y46326D01*
X63340Y45839D01*
X63437Y45351D01*
X63714Y44938D01*
Y44782D01*
X63353Y44541D01*
X62966Y43962D01*
X62930Y43780D01*
X71317D01*
X71311Y43809D01*
X71605Y44309D01*
X79437D01*
X80022Y44426D01*
X80518Y44757D01*
X82383Y46622D01*
X83780D01*
Y48215D01*
X84574Y49009D01*
X84595Y49000D01*
X89595D01*
Y50878D01*
X87096D01*
X86904Y51340D01*
X91035Y55471D01*
X102737D01*
X103127Y54795D01*
X103795Y54127D01*
X104614Y53654D01*
X105527Y53409D01*
X106473D01*
X107386Y53654D01*
X108205Y54127D01*
X108873Y54795D01*
X109346Y55614D01*
X109591Y56527D01*
Y57473D01*
X109346Y58386D01*
X108873Y59205D01*
X108205Y59873D01*
X107386Y60346D01*
X106473Y60590D01*
X105527D01*
X104614Y60346D01*
X103795Y59873D01*
X103127Y59205D01*
X102737Y58529D01*
X90402D01*
X89816Y58413D01*
X89320Y58081D01*
X81617Y50378D01*
X80221D01*
Y48785D01*
X78803Y47368D01*
X77081D01*
X76874Y47868D01*
X94986Y65980D01*
X102556D01*
X102654Y65614D01*
X103127Y64795D01*
X103795Y64127D01*
X104614Y63654D01*
X105527Y63410D01*
X106473D01*
X107386Y63654D01*
X108205Y64127D01*
X108873Y64795D01*
X109346Y65614D01*
X109591Y66527D01*
Y67473D01*
X109346Y68386D01*
X108873Y69205D01*
X108205Y69873D01*
X107386Y70346D01*
X106473Y70591D01*
X105527D01*
X104614Y70346D01*
X103795Y69873D01*
X103127Y69205D01*
X102654Y68386D01*
X102556Y68020D01*
X94564D01*
X94174Y67942D01*
X93843Y67721D01*
X75539Y49417D01*
X71031D01*
X70881Y49677D01*
X71031Y49937D01*
X74669D01*
X75060Y50015D01*
X75390Y50236D01*
X99045Y73890D01*
X102409D01*
Y73409D01*
X103762D01*
X103909Y73380D01*
X104057Y73409D01*
X109591D01*
Y80590D01*
D02*
G37*
G36*
X26622Y60969D02*
X24547D01*
Y58500D01*
X26622D01*
Y60969D01*
D02*
G37*
G36*
X23547D02*
X21473D01*
Y58500D01*
X23547D01*
Y60969D01*
D02*
G37*
G36*
X26614Y68370D02*
X22465D01*
Y65859D01*
X14625Y58020D01*
X9444D01*
X9346Y58386D01*
X8873Y59205D01*
X8205Y59873D01*
X7386Y60346D01*
X6473Y60590D01*
X5527D01*
X4614Y60346D01*
X3795Y59873D01*
X3127Y59205D01*
X2654Y58386D01*
X2410Y57473D01*
Y56527D01*
X2654Y55614D01*
X3127Y54795D01*
X3795Y54127D01*
X4614Y53654D01*
X5527Y53409D01*
X6473D01*
X7386Y53654D01*
X8205Y54127D01*
X8873Y54795D01*
X9346Y55614D01*
X9444Y55980D01*
X15047D01*
X15437Y56058D01*
X15768Y56279D01*
X23119Y63630D01*
X26614D01*
Y68370D01*
D02*
G37*
G36*
X26622Y57500D02*
X24547D01*
Y55032D01*
X26622D01*
Y57500D01*
D02*
G37*
G36*
X23547D02*
X21473D01*
Y55032D01*
X23547D01*
Y57500D01*
D02*
G37*
G36*
X106538Y51091D02*
X106500D01*
Y47500D01*
X110091D01*
Y47539D01*
X109812Y48579D01*
X109273Y49512D01*
X108512Y50273D01*
X107579Y50812D01*
X106538Y51091D01*
D02*
G37*
G36*
X105500D02*
X105462D01*
X104421Y50812D01*
X103488Y50273D01*
X102727Y49512D01*
X102188Y48579D01*
X101909Y47539D01*
Y47500D01*
X105500D01*
Y51091D01*
D02*
G37*
G36*
X9591Y80590D02*
X2410D01*
Y73409D01*
X9591D01*
Y75726D01*
X32634D01*
X33368Y74991D01*
X33177Y74529D01*
X20000D01*
X19415Y74413D01*
X18919Y74081D01*
X13366Y68529D01*
X9263D01*
X8873Y69205D01*
X8205Y69873D01*
X7386Y70346D01*
X6473Y70591D01*
X5527D01*
X4614Y70346D01*
X3795Y69873D01*
X3127Y69205D01*
X2654Y68386D01*
X2410Y67473D01*
Y66527D01*
X2654Y65614D01*
X3127Y64795D01*
X3795Y64127D01*
X4614Y63654D01*
X5527Y63410D01*
X6473D01*
X7386Y63654D01*
X8205Y64127D01*
X8873Y64795D01*
X9263Y65471D01*
X14000D01*
X14585Y65587D01*
X15081Y65919D01*
X20633Y71471D01*
X33346D01*
X35450Y69367D01*
Y68020D01*
X35471Y67918D01*
Y52703D01*
Y51000D01*
X35587Y50415D01*
X35919Y49919D01*
X38479Y47358D01*
X38458Y47182D01*
X38306Y46858D01*
X35584D01*
X30876Y51565D01*
Y55532D01*
X32028D01*
Y60469D01*
X30876D01*
Y63630D01*
X31535D01*
Y68370D01*
X27386D01*
Y63630D01*
X28837D01*
Y60469D01*
X27878D01*
Y55532D01*
X28837D01*
Y51143D01*
X28915Y50753D01*
X29136Y50422D01*
X34249Y45309D01*
X34042Y44809D01*
X11485D01*
X9591Y46704D01*
Y47473D01*
X9346Y48386D01*
X8873Y49205D01*
X8205Y49873D01*
X7386Y50346D01*
X6473Y50591D01*
X5527D01*
X4614Y50346D01*
X3795Y49873D01*
X3127Y49205D01*
X2654Y48386D01*
X2410Y47473D01*
Y46527D01*
X2654Y45614D01*
X3127Y44795D01*
X3795Y44127D01*
X4614Y43654D01*
X5527Y43409D01*
X6473D01*
X7386Y43654D01*
X7975Y43994D01*
X9647Y42321D01*
X9724Y42000D01*
X9647Y41679D01*
X7975Y40006D01*
X7386Y40346D01*
X6473Y40591D01*
X5527D01*
X4614Y40346D01*
X3795Y39873D01*
X3127Y39205D01*
X2654Y38386D01*
X2410Y37473D01*
Y36527D01*
X2654Y35614D01*
X3127Y34795D01*
X3795Y34127D01*
X4614Y33654D01*
X5527Y33409D01*
X6473D01*
X7386Y33654D01*
X8205Y34127D01*
X8873Y34795D01*
X9346Y35614D01*
X9591Y36527D01*
Y37296D01*
X11485Y39191D01*
X38042D01*
X38249Y38691D01*
X30713Y31154D01*
X30492Y30824D01*
X30414Y30433D01*
Y28468D01*
X27878D01*
Y23531D01*
X28837D01*
Y20370D01*
X27386D01*
Y15630D01*
X31535D01*
Y20370D01*
X30876D01*
Y23531D01*
X32028D01*
Y26633D01*
X32154Y26760D01*
X32375Y27090D01*
X32453Y27481D01*
Y30011D01*
X39584Y37142D01*
X40573D01*
X40725Y36642D01*
X40413Y36433D01*
X36166Y32186D01*
X35834Y31690D01*
X35718Y31105D01*
Y16881D01*
X32366Y13529D01*
X11633D01*
X9389Y15774D01*
X9591Y16527D01*
Y17473D01*
X9346Y18386D01*
X8873Y19205D01*
X8205Y19873D01*
X7386Y20346D01*
X6473Y20591D01*
X5527D01*
X4614Y20346D01*
X3795Y19873D01*
X3127Y19205D01*
X2654Y18386D01*
X2410Y17473D01*
Y16527D01*
X2654Y15614D01*
X3127Y14795D01*
X3795Y14127D01*
X4614Y13654D01*
X5527Y13409D01*
X6473D01*
X7226Y13611D01*
X9919Y10919D01*
X10415Y10587D01*
X11000Y10471D01*
X33000D01*
X33401Y10550D01*
X33648Y10090D01*
X31578Y8020D01*
X9444D01*
X9346Y8386D01*
X8873Y9205D01*
X8205Y9873D01*
X7386Y10346D01*
X6473Y10591D01*
X5527D01*
X4614Y10346D01*
X3795Y9873D01*
X3127Y9205D01*
X2654Y8386D01*
X2410Y7473D01*
Y6527D01*
X2654Y5614D01*
X3127Y4795D01*
X3795Y4127D01*
X4614Y3654D01*
X5527Y3409D01*
X6473D01*
X7386Y3654D01*
X8205Y4127D01*
X8873Y4795D01*
X9346Y5614D01*
X9444Y5980D01*
X32000D01*
X32390Y6058D01*
X32721Y6279D01*
X45597Y19155D01*
X45818Y19486D01*
X45896Y19876D01*
Y31769D01*
X47386D01*
X47873Y31866D01*
X48287Y32142D01*
X48563Y32556D01*
X48660Y33043D01*
X48563Y33531D01*
X48287Y33944D01*
X48170Y34022D01*
Y34624D01*
X48287Y34701D01*
X48563Y35115D01*
X48660Y35602D01*
X48563Y36090D01*
X48287Y36503D01*
X48170Y36581D01*
Y37183D01*
X48287Y37261D01*
X48563Y37674D01*
X48660Y38161D01*
X48563Y38649D01*
X48287Y39062D01*
X48170Y39140D01*
Y39742D01*
X48287Y39820D01*
X48563Y40233D01*
X48660Y40720D01*
X48563Y41208D01*
X48287Y41621D01*
X48170Y41699D01*
Y42301D01*
X48287Y42379D01*
X48563Y42792D01*
X48660Y43279D01*
X48563Y43767D01*
X48287Y44180D01*
X48170Y44258D01*
Y44860D01*
X48287Y44938D01*
X48563Y45351D01*
X48660Y45839D01*
X48563Y46326D01*
X48287Y46739D01*
X48170Y46817D01*
Y47419D01*
X48287Y47497D01*
X48563Y47910D01*
X48660Y48398D01*
X48563Y48885D01*
X48347Y49207D01*
X48453Y49540D01*
X48569Y49707D01*
X48635D01*
Y52206D01*
X46151D01*
Y65285D01*
X46054Y65773D01*
X45778Y66186D01*
X34063Y77901D01*
X33649Y78177D01*
X33162Y78275D01*
X9591D01*
Y80590D01*
D02*
G37*
G36*
X110091Y46500D02*
X106500D01*
Y42909D01*
X106538D01*
X107579Y43188D01*
X108512Y43727D01*
X109273Y44488D01*
X109812Y45421D01*
X110091Y46461D01*
Y46500D01*
D02*
G37*
G36*
X105500D02*
X101909D01*
Y46461D01*
X102188Y45421D01*
X102727Y44488D01*
X103488Y43727D01*
X104421Y43188D01*
X105462Y42909D01*
X105500D01*
Y46500D01*
D02*
G37*
G36*
X61843Y48453D02*
X56500D01*
Y42500D01*
X61843D01*
Y48453D01*
D02*
G37*
G36*
X55500D02*
X50157D01*
Y42500D01*
X55500D01*
Y48453D01*
D02*
G37*
G36*
X89595Y48000D02*
X85035D01*
Y46122D01*
X85035Y46122D01*
X85035D01*
X85008Y45634D01*
X84918Y45574D01*
X82983Y43639D01*
X82886Y43492D01*
X79807D01*
Y42390D01*
X71698D01*
X71418Y42779D01*
X62930D01*
X62966Y42597D01*
X63353Y42018D01*
X63714Y41777D01*
Y41621D01*
X63437Y41208D01*
X63340Y40720D01*
X63437Y40233D01*
X63714Y39820D01*
X63830Y39742D01*
Y39140D01*
X63714Y39062D01*
X63437Y38649D01*
X63340Y38161D01*
X63437Y37674D01*
X63714Y37261D01*
X63830Y37183D01*
Y36581D01*
X63714Y36503D01*
X63437Y36090D01*
X63340Y35602D01*
X63437Y35115D01*
X63714Y34701D01*
X63830Y34624D01*
Y34022D01*
X63714Y33944D01*
X63437Y33531D01*
X63340Y33043D01*
X63437Y32556D01*
X63714Y32142D01*
X64127Y31866D01*
X64614Y31769D01*
X69465D01*
X94955Y6279D01*
X95286Y6058D01*
X95676Y5980D01*
X102556D01*
X102654Y5614D01*
X103127Y4795D01*
X103795Y4127D01*
X104614Y3654D01*
X105527Y3409D01*
X106473D01*
X107386Y3654D01*
X108205Y4127D01*
X108873Y4795D01*
X109346Y5614D01*
X109591Y6527D01*
Y7473D01*
X109346Y8386D01*
X108873Y9205D01*
X108205Y9873D01*
X107386Y10346D01*
X106473Y10591D01*
X105527D01*
X104614Y10346D01*
X103795Y9873D01*
X103127Y9205D01*
X102654Y8386D01*
X102556Y8020D01*
X96098D01*
X88560Y15558D01*
X88806Y16019D01*
X89000Y15980D01*
X102556D01*
X102654Y15614D01*
X103127Y14795D01*
X103795Y14127D01*
X104614Y13654D01*
X105527Y13409D01*
X106473D01*
X107386Y13654D01*
X108205Y14127D01*
X108873Y14795D01*
X109346Y15614D01*
X109591Y16527D01*
Y17473D01*
X109346Y18386D01*
X108873Y19205D01*
X108205Y19873D01*
X107386Y20346D01*
X106473Y20591D01*
X105527D01*
X104614Y20346D01*
X103795Y19873D01*
X103127Y19205D01*
X102654Y18386D01*
X102556Y18020D01*
X89422D01*
X71310Y36132D01*
X71412Y36507D01*
X71500Y36632D01*
X77907D01*
X80568Y33971D01*
Y31000D01*
X83146D01*
X83834Y30312D01*
X84141Y29851D01*
X85074Y28919D01*
X85571Y28587D01*
X86156Y28471D01*
X101235D01*
X102409Y27296D01*
Y26527D01*
X102654Y25614D01*
X103127Y24795D01*
X103795Y24127D01*
X104614Y23654D01*
X105527Y23410D01*
X106473D01*
X107386Y23654D01*
X108205Y24127D01*
X108873Y24795D01*
X109346Y25614D01*
X109591Y26527D01*
Y27473D01*
X109346Y28386D01*
X108873Y29205D01*
X108205Y29873D01*
X107386Y30346D01*
X106473Y30591D01*
X105527D01*
X104614Y30346D01*
X104025Y30006D01*
X102950Y31081D01*
X102454Y31413D01*
X101869Y31529D01*
X91517D01*
Y33067D01*
X88647D01*
Y33567D01*
X88147D01*
Y36634D01*
X85777D01*
Y36210D01*
X85308Y36134D01*
Y36134D01*
X82731D01*
X80819Y38046D01*
X81011Y38508D01*
X85565D01*
X85621Y38031D01*
Y38008D01*
X88500D01*
Y41000D01*
X89500D01*
Y38008D01*
X92379D01*
Y41298D01*
X92841Y41489D01*
X98411Y35919D01*
X98907Y35587D01*
X99492Y35471D01*
X102737D01*
X103127Y34795D01*
X103795Y34127D01*
X104614Y33654D01*
X105527Y33409D01*
X106473D01*
X107386Y33654D01*
X108205Y34127D01*
X108873Y34795D01*
X109346Y35614D01*
X109591Y36527D01*
Y37473D01*
X109346Y38386D01*
X108873Y39205D01*
X108205Y39873D01*
X107386Y40346D01*
X106473Y40591D01*
X105527D01*
X104614Y40346D01*
X103795Y39873D01*
X103127Y39205D01*
X102737Y38529D01*
X100126D01*
X93081Y45574D01*
X92585Y45905D01*
X92000Y46022D01*
X90053D01*
X89595Y46122D01*
Y48000D01*
D02*
G37*
G36*
X61843Y41500D02*
X56500D01*
Y35547D01*
X61843D01*
Y41500D01*
D02*
G37*
G36*
X55500D02*
X50157D01*
Y35547D01*
X55500D01*
Y41500D01*
D02*
G37*
G36*
X91517Y36634D02*
X89147D01*
Y34067D01*
X91517D01*
Y36634D01*
D02*
G37*
G36*
X26622Y28969D02*
X24547D01*
Y26500D01*
X26622D01*
Y28969D01*
D02*
G37*
G36*
X23547D02*
X21473D01*
Y26500D01*
X23547D01*
Y28969D01*
D02*
G37*
G36*
X26622Y25500D02*
X24547D01*
Y23031D01*
X26622D01*
Y25500D01*
D02*
G37*
G36*
X23547D02*
X21473D01*
Y23031D01*
X23547D01*
Y25500D01*
D02*
G37*
G36*
X6473Y30591D02*
X5527D01*
X4614Y30346D01*
X3795Y29873D01*
X3127Y29205D01*
X2654Y28386D01*
X2410Y27473D01*
Y26527D01*
X2654Y25614D01*
X3127Y24795D01*
X3795Y24127D01*
X4614Y23654D01*
X5527Y23410D01*
X6473D01*
X7386Y23654D01*
X8205Y24127D01*
X8873Y24795D01*
X9346Y25614D01*
X9444Y25980D01*
X14625D01*
X22465Y18141D01*
Y15630D01*
X26614D01*
Y20370D01*
X23119D01*
X15768Y27721D01*
X15437Y27942D01*
X15047Y28020D01*
X9444D01*
X9346Y28386D01*
X8873Y29205D01*
X8205Y29873D01*
X7386Y30346D01*
X6473Y30591D01*
D02*
G37*
%LPD*%
G36*
X43602Y64757D02*
Y52206D01*
X41118D01*
Y49927D01*
X40236D01*
X38529Y51634D01*
Y52703D01*
Y68000D01*
X38509Y68102D01*
Y69197D01*
X38971Y69388D01*
X43602Y64757D01*
D02*
G37*
G36*
X41342Y32329D02*
X41466Y32142D01*
X41880Y31866D01*
X42367Y31769D01*
X43857D01*
Y20299D01*
X39158Y15599D01*
X38697Y15846D01*
X38777Y16247D01*
Y30471D01*
X40743Y32437D01*
X41342Y32329D01*
D02*
G37*
D12*
X74669Y50957D02*
X98622Y74910D01*
X67124Y50957D02*
X74669D01*
X98622Y74910D02*
X103909D01*
X94564Y67000D02*
X106000D01*
X75961Y48398D02*
X94564Y67000D01*
X67124Y48398D02*
X75961D01*
X29953Y26000D02*
X31433Y27481D01*
Y30433D01*
X29857Y26000D02*
X29953D01*
X39161Y38161D02*
X44876D01*
X31433Y30433D02*
X39161Y38161D01*
X42900Y48398D02*
X42996Y48493D01*
X36980Y68020D02*
X37000Y68000D01*
X6000Y27000D02*
X15047D01*
X24047Y18000D01*
X24143D01*
X29857D02*
Y26000D01*
X24047Y66000D02*
X24143D01*
X6000Y57000D02*
X15047D01*
X24047Y66000D01*
X29857Y58000D02*
Y66000D01*
Y51143D02*
Y58000D01*
X35161Y45839D02*
X44876D01*
X29857Y51143D02*
X35161Y45839D01*
X67219Y35507D02*
X70493D01*
X67124Y35602D02*
X67219Y35507D01*
X70493D02*
X89000Y17000D01*
X69633Y33043D02*
X95676Y7000D01*
X106000D01*
X67124Y33043D02*
X69633D01*
X89000Y17000D02*
X106000D01*
X32000Y7000D02*
X44876Y19876D01*
Y33043D01*
X6000Y7000D02*
X32000D01*
D14*
X29461Y18000D02*
D03*
X24539D02*
D03*
X29461Y66000D02*
D03*
X24539D02*
D03*
D15*
X29953Y26000D02*
D03*
X24047D02*
D03*
X29953Y58000D02*
D03*
X24047D02*
D03*
D16*
X67124Y50957D02*
D03*
Y48398D02*
D03*
Y45839D02*
D03*
Y43279D02*
D03*
Y40720D02*
D03*
Y38161D02*
D03*
Y35602D02*
D03*
Y33043D02*
D03*
X44876D02*
D03*
Y35602D02*
D03*
Y38161D02*
D03*
Y40720D02*
D03*
Y43279D02*
D03*
Y45839D02*
D03*
Y48398D02*
D03*
D17*
Y50957D02*
D03*
D18*
X88647Y33567D02*
D03*
X82938D02*
D03*
D19*
X87315Y48500D02*
D03*
X82000D02*
D03*
D20*
X82686Y41000D02*
D03*
X89000D02*
D03*
D23*
X56000Y42000D02*
D03*
D25*
X106000Y7000D02*
D03*
Y17000D02*
D03*
Y27000D02*
D03*
Y37000D02*
D03*
Y47000D02*
D03*
Y57000D02*
D03*
Y67000D02*
D03*
X6000Y7000D02*
D03*
Y17000D02*
D03*
Y27000D02*
D03*
Y37000D02*
D03*
Y47000D02*
D03*
Y57000D02*
D03*
Y67000D02*
D03*
D26*
X106000Y77000D02*
D03*
X6000D02*
D03*
D27*
X82000Y48598D02*
X90402Y57000D01*
X106000D01*
X82000Y48500D02*
Y48598D01*
X79437Y45839D02*
X82000Y48402D01*
Y48500D01*
X82938Y33370D02*
X85223Y31086D01*
Y30933D02*
Y31086D01*
Y30933D02*
X86156Y30000D01*
X101869D01*
X104869Y27000D01*
X82938Y33370D02*
Y33567D01*
X104869Y27000D02*
X106000D01*
X82938Y33567D02*
Y33764D01*
X78541Y38161D02*
X82938Y33764D01*
X67124Y38161D02*
X78541D01*
X103909Y74910D02*
X106000Y77000D01*
X67124Y45839D02*
X79437D01*
X82686Y41000D02*
X83072D01*
X84065Y41992D01*
Y42557D01*
X86000Y44492D01*
X92000D01*
X99492Y37000D01*
X106000D01*
X67263Y40860D02*
X82546D01*
X82686Y41000D01*
X11000Y12000D02*
X33000D01*
X6000Y17000D02*
X11000Y12000D01*
X33000D02*
X37247Y16247D01*
Y31105D01*
X41495Y35352D01*
X44626D01*
X44876Y35602D01*
X7131Y37000D02*
X10852Y40720D01*
X44876D01*
X6000Y37000D02*
X7131D01*
X6000Y47000D02*
X7131D01*
X10852Y43279D02*
X44876D01*
X7131Y47000D02*
X10852Y43279D01*
X39602Y48398D02*
X42900D01*
X37000Y51000D02*
X39602Y48398D01*
X37000Y51000D02*
Y52703D01*
X6000Y67000D02*
X14000D01*
X20000Y73000D01*
X33980D01*
X36980Y70000D01*
Y68020D02*
Y70000D01*
X37000Y52703D02*
Y68000D01*
D28*
X6000Y77000D02*
X33162D01*
X44876Y65285D01*
Y50957D02*
Y65285D01*
M02*
