G04*
G04 #@! TF.GenerationSoftware,Altium Limited,Altium Designer,22.4.2 (48)*
G04*
G04 Layer_Color=8421504*
%FSLAX26Y26*%
%MOIN*%
G70*
G04*
G04 #@! TF.SameCoordinates,2AD52CA1-F133-4533-A991-55CBF92103CF*
G04*
G04*
G04 #@! TF.FilePolarity,Positive*
G04*
G01*
G75*
%ADD13R,0.059182X0.071387*%
G04:AMPARAMS|DCode=14|XSize=65.174mil|YSize=14.991mil|CornerRadius=7.495mil|HoleSize=0mil|Usage=FLASHONLY|Rotation=0.000|XOffset=0mil|YOffset=0mil|HoleType=Round|Shape=RoundedRectangle|*
%AMROUNDEDRECTD14*
21,1,0.065174,0.000000,0,0,0.0*
21,1,0.050184,0.014991,0,0,0.0*
1,1,0.014991,0.025092,0.000000*
1,1,0.014991,-0.025092,0.000000*
1,1,0.014991,-0.025092,0.000000*
1,1,0.014991,0.025092,0.000000*
%
%ADD14ROUNDEDRECTD14*%
%ADD15R,0.065174X0.014991*%
%ADD16R,0.041532X0.039614*%
%ADD17R,0.037402X0.041339*%
%ADD18R,0.025591X0.027559*%
%ADD19R,0.047575X0.039848*%
D13*
X560000Y420000D02*
D03*
D14*
X671236Y509567D02*
D03*
Y483976D02*
D03*
Y458386D02*
D03*
Y432795D02*
D03*
Y407205D02*
D03*
Y381614D02*
D03*
Y356024D02*
D03*
Y330433D02*
D03*
X448764D02*
D03*
Y356024D02*
D03*
Y381614D02*
D03*
Y407205D02*
D03*
Y432795D02*
D03*
Y458386D02*
D03*
Y483976D02*
D03*
D15*
Y509567D02*
D03*
D16*
X241431Y580000D02*
D03*
X298569D02*
D03*
X241431Y180000D02*
D03*
X298569D02*
D03*
X241431Y260000D02*
D03*
X298569D02*
D03*
X241431Y660000D02*
D03*
X298569D02*
D03*
D17*
X886471Y335669D02*
D03*
X829385D02*
D03*
D18*
X873150Y485000D02*
D03*
X820000D02*
D03*
D19*
X826861Y410000D02*
D03*
X890000D02*
D03*
M02*
