G04*
G04 #@! TF.GenerationSoftware,Altium Limited,Altium Designer,22.4.2 (48)*
G04*
G04 Layer_Color=128*
%FSLAX26Y26*%
%MOIN*%
G70*
G04*
G04 #@! TF.SameCoordinates,2AD52CA1-F133-4533-A991-55CBF92103CF*
G04*
G04*
G04 #@! TF.FilePolarity,Positive*
G04*
G01*
G75*
%ADD26C,0.005000*%
D26*
X1039921Y70000D02*
X1080079D01*
X1060000Y49921D02*
Y90079D01*
X1039921Y170000D02*
X1080079D01*
X1060000Y149921D02*
Y190079D01*
X1039921Y270000D02*
X1080079D01*
X1060000Y249921D02*
Y290079D01*
X1039921Y370000D02*
X1080079D01*
X1060000Y349921D02*
Y390079D01*
X1039921Y470000D02*
X1080079D01*
X1060000Y449921D02*
Y490079D01*
X1039921Y570000D02*
X1080079D01*
X1060000Y549921D02*
Y590079D01*
X1039921Y670000D02*
X1080079D01*
X1060000Y649921D02*
Y690079D01*
X1039921Y770000D02*
X1080079D01*
X1060000Y749921D02*
Y790079D01*
X39921Y70000D02*
X80079D01*
X60000Y49921D02*
Y90079D01*
X39921Y170000D02*
X80079D01*
X60000Y149921D02*
Y190079D01*
X39921Y270000D02*
X80079D01*
X60000Y249921D02*
Y290079D01*
X39921Y370000D02*
X80079D01*
X60000Y349921D02*
Y390079D01*
X39921Y470000D02*
X80079D01*
X60000Y449921D02*
Y490079D01*
X39921Y570000D02*
X80079D01*
X60000Y549921D02*
Y590079D01*
X39921Y670000D02*
X80079D01*
X60000Y649921D02*
Y690079D01*
X39921Y770000D02*
X80079D01*
X60000Y749921D02*
Y790079D01*
M02*
