G04*
G04 #@! TF.GenerationSoftware,Altium Limited,Altium Designer,22.4.2 (48)*
G04*
G04 Layer_Physical_Order=1*
G04 Layer_Color=255*
%FSLAX26Y26*%
%MOIN*%
G70*
G04*
G04 #@! TF.SameCoordinates,2AD52CA1-F133-4533-A991-55CBF92103CF*
G04*
G04*
G04 #@! TF.FilePolarity,Positive*
G04*
G01*
G75*
%ADD12C,0.010000*%
G04:AMPARAMS|DCode=14|XSize=65.174mil|YSize=14.991mil|CornerRadius=7.495mil|HoleSize=0mil|Usage=FLASHONLY|Rotation=0.000|XOffset=0mil|YOffset=0mil|HoleType=Round|Shape=RoundedRectangle|*
%AMROUNDEDRECTD14*
21,1,0.065174,0.000000,0,0,0.0*
21,1,0.050184,0.014991,0,0,0.0*
1,1,0.014991,0.025092,0.000000*
1,1,0.014991,-0.025092,0.000000*
1,1,0.014991,-0.025092,0.000000*
1,1,0.014991,0.025092,0.000000*
%
%ADD14ROUNDEDRECTD14*%
%ADD15R,0.065174X0.014991*%
%ADD16R,0.041532X0.039614*%
%ADD17R,0.037402X0.041339*%
%ADD18R,0.025591X0.027559*%
%ADD19R,0.047575X0.039848*%
%ADD20R,0.096850X0.109055*%
%ADD22C,0.061811*%
%ADD23R,0.061811X0.061811*%
%ADD24C,0.020000*%
%ADD25C,0.015000*%
G36*
X1120000Y0D02*
X0D01*
Y870000D01*
X1120000D01*
Y0D01*
D02*
G37*
%LPC*%
G36*
X1095906Y805905D02*
X1024094D01*
Y759290D01*
X986223D01*
X982321Y758514D01*
X979013Y756304D01*
X742472Y519763D01*
X703559D01*
X701203Y521337D01*
X696327Y522307D01*
X646144D01*
X641268Y521337D01*
X637135Y518576D01*
X634373Y514442D01*
X633404Y509567D01*
X634373Y504691D01*
X637135Y500558D01*
X638302Y499778D01*
Y493765D01*
X637135Y492985D01*
X634373Y488852D01*
X633404Y483976D01*
X634373Y479101D01*
X637135Y474968D01*
X638302Y474188D01*
Y468174D01*
X637135Y467394D01*
X634373Y463261D01*
X633404Y458386D01*
X634373Y453510D01*
X637135Y449377D01*
Y447817D01*
X633530Y445409D01*
X629663Y439622D01*
X629300Y437795D01*
X713171D01*
X713112Y438092D01*
X716045Y443092D01*
X794370D01*
X800223Y444256D01*
X805184Y447571D01*
X823834Y466221D01*
X837795D01*
Y482151D01*
X845735Y490090D01*
X845953Y490000D01*
X895945D01*
Y508779D01*
X870957D01*
X869043Y513399D01*
X910351Y554706D01*
X1027370D01*
X1031268Y547953D01*
X1037954Y541269D01*
X1046141Y536541D01*
X1055273Y534095D01*
X1064727D01*
X1073859Y536541D01*
X1082046Y541269D01*
X1088732Y547953D01*
X1093459Y556141D01*
X1095906Y565273D01*
Y574727D01*
X1093459Y583859D01*
X1088732Y592047D01*
X1082046Y598731D01*
X1073859Y603459D01*
X1064727Y605905D01*
X1055273D01*
X1046141Y603459D01*
X1037954Y598731D01*
X1031268Y592047D01*
X1027370Y585294D01*
X904016D01*
X898163Y584130D01*
X893201Y580814D01*
X816166Y503779D01*
X802205D01*
Y487849D01*
X788035Y473680D01*
X770807D01*
X768736Y478680D01*
X949860Y659804D01*
X1025560D01*
X1026541Y656141D01*
X1031268Y647953D01*
X1037954Y641269D01*
X1046141Y636541D01*
X1055273Y634095D01*
X1064727D01*
X1073859Y636541D01*
X1082046Y641269D01*
X1088732Y647953D01*
X1093459Y656141D01*
X1095906Y665273D01*
Y674727D01*
X1093459Y683859D01*
X1088732Y692047D01*
X1082046Y698731D01*
X1073859Y703459D01*
X1064727Y705905D01*
X1055273D01*
X1046141Y703459D01*
X1037954Y698731D01*
X1031268Y692047D01*
X1026541Y683859D01*
X1025560Y680196D01*
X945637D01*
X941735Y679420D01*
X938428Y677210D01*
X755390Y494172D01*
X710310D01*
X708809Y496772D01*
X710310Y499371D01*
X746695D01*
X750597Y500147D01*
X753905Y502357D01*
X990446Y738899D01*
X1024094D01*
Y734095D01*
X1037617D01*
X1039094Y733801D01*
X1040572Y734095D01*
X1095906D01*
Y805905D01*
D02*
G37*
G36*
X267197Y684807D02*
X215665D01*
Y649612D01*
X146249Y580196D01*
X94440D01*
X93459Y583859D01*
X88731Y592047D01*
X82046Y598731D01*
X73859Y603459D01*
X64727Y605905D01*
X55273D01*
X46141Y603459D01*
X37953Y598731D01*
X31268Y592047D01*
X26541Y583859D01*
X24095Y574727D01*
Y565273D01*
X26541Y556141D01*
X31268Y547953D01*
X37953Y541269D01*
X46141Y536541D01*
X55273Y534095D01*
X64727D01*
X73859Y536541D01*
X82046Y541269D01*
X88731Y547953D01*
X93459Y556141D01*
X94440Y559804D01*
X150472D01*
X154374Y560580D01*
X157682Y562790D01*
X206349Y611457D01*
X210665Y608703D01*
X210665Y605265D01*
Y585000D01*
X236431D01*
Y609807D01*
X215530D01*
X211770Y609807D01*
X209015Y614124D01*
X230084Y635193D01*
X267197D01*
Y684807D01*
D02*
G37*
G36*
X236431Y575000D02*
X210665D01*
Y550193D01*
X236431D01*
Y575000D01*
D02*
G37*
G36*
X1065385Y510906D02*
X1065000D01*
Y475000D01*
X1100906D01*
Y475385D01*
X1098118Y485789D01*
X1092733Y495117D01*
X1085117Y502733D01*
X1075789Y508118D01*
X1065385Y510906D01*
D02*
G37*
G36*
X1055000D02*
X1054615D01*
X1044211Y508118D01*
X1034883Y502733D01*
X1027267Y495117D01*
X1021882Y485789D01*
X1019095Y475385D01*
Y475000D01*
X1055000D01*
Y510906D01*
D02*
G37*
G36*
X95906Y805905D02*
X24095D01*
Y734095D01*
X95906D01*
Y757255D01*
X326337D01*
X333679Y749913D01*
X331766Y745294D01*
X200000D01*
X194147Y744130D01*
X189186Y740814D01*
X133665Y685294D01*
X92630D01*
X88731Y692047D01*
X82046Y698731D01*
X73859Y703459D01*
X64727Y705905D01*
X55273D01*
X46141Y703459D01*
X37953Y698731D01*
X31268Y692047D01*
X26541Y683859D01*
X24095Y674727D01*
Y665273D01*
X26541Y656141D01*
X31268Y647953D01*
X37953Y641269D01*
X46141Y636541D01*
X55273Y634095D01*
X64727D01*
X73859Y636541D01*
X82046Y641269D01*
X88731Y647953D01*
X92630Y654706D01*
X140000D01*
X145853Y655870D01*
X150814Y659186D01*
X206335Y714706D01*
X333462D01*
X354503Y693665D01*
Y680203D01*
X354706Y679181D01*
Y527035D01*
Y510000D01*
X355870Y504147D01*
X359186Y499186D01*
X384789Y473582D01*
X384580Y471819D01*
X383064Y468582D01*
X355837D01*
X308765Y515654D01*
Y555193D01*
X324335D01*
Y604807D01*
X308765D01*
Y635193D01*
X324335D01*
Y684807D01*
X272803D01*
Y635193D01*
X288373D01*
Y604807D01*
X272803Y604807D01*
X272197Y609556D01*
Y609807D01*
X246431D01*
Y580000D01*
Y550193D01*
X272197D01*
Y550444D01*
X272803Y555193D01*
X277197Y555193D01*
X288373D01*
Y511431D01*
X289149Y507529D01*
X291359Y504221D01*
X342492Y453089D01*
X340421Y448089D01*
X114854D01*
X95906Y467037D01*
Y474727D01*
X93459Y483859D01*
X88731Y492046D01*
X82046Y498731D01*
X73859Y503459D01*
X64727Y505906D01*
X55273D01*
X46141Y503459D01*
X37953Y498731D01*
X31268Y492046D01*
X26541Y483859D01*
X24095Y474727D01*
Y465273D01*
X26541Y456141D01*
X31268Y447954D01*
X37953Y441269D01*
X46141Y436541D01*
X55273Y434094D01*
X64727D01*
X73859Y436541D01*
X79745Y439940D01*
X96474Y423211D01*
X97235Y420000D01*
X96474Y416789D01*
X79745Y400060D01*
X73859Y403459D01*
X64727Y405906D01*
X55273D01*
X46141Y403459D01*
X37953Y398731D01*
X31268Y392046D01*
X26541Y383859D01*
X24095Y374727D01*
Y365273D01*
X26541Y356141D01*
X31268Y347954D01*
X37953Y341269D01*
X46141Y336541D01*
X55273Y334094D01*
X64727D01*
X73859Y336541D01*
X82046Y341269D01*
X88731Y347954D01*
X93459Y356141D01*
X95906Y365273D01*
Y372963D01*
X114854Y391911D01*
X380421D01*
X382492Y386911D01*
X307125Y311544D01*
X304915Y308236D01*
X304139Y304335D01*
Y284807D01*
X272803Y284807D01*
X272197Y289556D01*
Y289807D01*
X246431D01*
Y260000D01*
Y230193D01*
X272197D01*
Y230444D01*
X272803Y235193D01*
X277197Y235193D01*
X288373D01*
Y204807D01*
X272803D01*
Y155193D01*
X324335D01*
Y204807D01*
X308765D01*
Y235193D01*
X324335D01*
Y273822D01*
X324531Y274807D01*
Y300111D01*
X395837Y371418D01*
X405734D01*
X407251Y366418D01*
X404131Y364333D01*
X361658Y321861D01*
X358343Y316899D01*
X357179Y311046D01*
Y168808D01*
X323665Y135294D01*
X116335D01*
X93887Y157741D01*
X95906Y165273D01*
Y174727D01*
X93459Y183859D01*
X88731Y192047D01*
X82046Y198732D01*
X73859Y203459D01*
X64727Y205905D01*
X55273D01*
X46141Y203459D01*
X37953Y198732D01*
X31268Y192047D01*
X26541Y183859D01*
X24095Y174727D01*
Y165273D01*
X26541Y156141D01*
X31268Y147953D01*
X37953Y141268D01*
X46141Y136541D01*
X55273Y134095D01*
X64727D01*
X72259Y136113D01*
X99186Y109186D01*
X104147Y105870D01*
X110000Y104706D01*
X330000D01*
X334014Y105505D01*
X336477Y100897D01*
X315777Y80196D01*
X94440D01*
X93459Y83859D01*
X88731Y92046D01*
X82046Y98731D01*
X73859Y103459D01*
X64727Y105906D01*
X55273D01*
X46141Y103459D01*
X37953Y98731D01*
X31268Y92046D01*
X26541Y83859D01*
X24095Y74727D01*
Y65273D01*
X26541Y56141D01*
X31268Y47953D01*
X37953Y41269D01*
X46141Y36541D01*
X55273Y34094D01*
X64727D01*
X73859Y36541D01*
X82046Y41269D01*
X88731Y47953D01*
X93459Y56141D01*
X94440Y59804D01*
X320000D01*
X323902Y60580D01*
X327210Y62790D01*
X455974Y191555D01*
X458184Y194863D01*
X458960Y198764D01*
Y317693D01*
X473856D01*
X478732Y318663D01*
X482865Y321424D01*
X485627Y325558D01*
X486596Y330433D01*
X485627Y335309D01*
X482865Y339442D01*
X481698Y340222D01*
Y346235D01*
X482865Y347015D01*
X485627Y351148D01*
X486596Y356024D01*
X485627Y360899D01*
X482865Y365032D01*
X481698Y365812D01*
Y371826D01*
X482865Y372606D01*
X485627Y376739D01*
X486596Y381614D01*
X485627Y386490D01*
X482865Y390623D01*
X481698Y391403D01*
Y397416D01*
X482865Y398196D01*
X485627Y402329D01*
X486596Y407205D01*
X485627Y412080D01*
X482865Y416213D01*
X481698Y416993D01*
Y423007D01*
X482865Y423787D01*
X485627Y427920D01*
X486596Y432795D01*
X485627Y437671D01*
X482865Y441804D01*
X481698Y442584D01*
Y448597D01*
X482865Y449377D01*
X485627Y453510D01*
X486596Y458386D01*
X485627Y463261D01*
X482865Y467394D01*
X481698Y468174D01*
Y474188D01*
X482865Y474968D01*
X485627Y479101D01*
X486596Y483976D01*
X485627Y488852D01*
X483475Y492072D01*
X484531Y495396D01*
X485690Y497072D01*
X486352D01*
Y522062D01*
X461509D01*
Y652852D01*
X460539Y657729D01*
X457776Y661864D01*
X340628Y779012D01*
X336494Y781775D01*
X331616Y782745D01*
X95906D01*
Y805905D01*
D02*
G37*
G36*
X1100906Y465000D02*
X1065000D01*
Y429094D01*
X1065385D01*
X1075789Y431882D01*
X1085117Y437267D01*
X1092733Y444883D01*
X1098118Y454211D01*
X1100906Y464615D01*
Y465000D01*
D02*
G37*
G36*
X1055000D02*
X1019095D01*
Y464615D01*
X1021882Y454211D01*
X1027267Y444883D01*
X1034883Y437267D01*
X1044211Y431882D01*
X1054615Y429094D01*
X1055000D01*
Y465000D01*
D02*
G37*
G36*
X618425Y484527D02*
X565000D01*
Y425000D01*
X618425D01*
Y484527D01*
D02*
G37*
G36*
X555000D02*
X501575D01*
Y425000D01*
X555000D01*
Y484527D01*
D02*
G37*
G36*
X895945Y480000D02*
X850354D01*
Y461221D01*
X850354Y461221D01*
X850354D01*
X850078Y456335D01*
X849185Y455738D01*
X829834Y436387D01*
X828856Y434924D01*
X798074D01*
Y423896D01*
X716979D01*
X714180Y427795D01*
X629300D01*
X629663Y425969D01*
X633530Y420182D01*
X637135Y417773D01*
Y416213D01*
X634373Y412080D01*
X633404Y407205D01*
X634373Y402329D01*
X637135Y398196D01*
X638302Y397416D01*
Y391403D01*
X637135Y390623D01*
X634373Y386490D01*
X633404Y381614D01*
X634373Y376739D01*
X637135Y372606D01*
X638302Y371826D01*
Y365812D01*
X637135Y365032D01*
X634373Y360899D01*
X633404Y356024D01*
X634373Y351148D01*
X637135Y347015D01*
X638302Y346235D01*
Y340222D01*
X637135Y339442D01*
X634373Y335309D01*
X633404Y330433D01*
X634373Y325558D01*
X637135Y321424D01*
X641268Y318663D01*
X646144Y317693D01*
X694649D01*
X949551Y62790D01*
X952859Y60580D01*
X956761Y59804D01*
X1025560D01*
X1026541Y56141D01*
X1031268Y47953D01*
X1037954Y41269D01*
X1046141Y36541D01*
X1055273Y34094D01*
X1064727D01*
X1073859Y36541D01*
X1082046Y41269D01*
X1088732Y47953D01*
X1093459Y56141D01*
X1095906Y65273D01*
Y74727D01*
X1093459Y83859D01*
X1088732Y92046D01*
X1082046Y98731D01*
X1073859Y103459D01*
X1064727Y105906D01*
X1055273D01*
X1046141Y103459D01*
X1037954Y98731D01*
X1031268Y92046D01*
X1026541Y83859D01*
X1025560Y80196D01*
X960984D01*
X885598Y155582D01*
X888061Y160190D01*
X890000Y159804D01*
X1025560D01*
X1026541Y156141D01*
X1031268Y147953D01*
X1037954Y141268D01*
X1046141Y136541D01*
X1055273Y134095D01*
X1064727D01*
X1073859Y136541D01*
X1082046Y141268D01*
X1088732Y147953D01*
X1093459Y156141D01*
X1095906Y165273D01*
Y174727D01*
X1093459Y183859D01*
X1088732Y192047D01*
X1082046Y198732D01*
X1073859Y203459D01*
X1064727Y205905D01*
X1055273D01*
X1046141Y203459D01*
X1037954Y198732D01*
X1031268Y192047D01*
X1026541Y183859D01*
X1025560Y180196D01*
X894223D01*
X713099Y361320D01*
X714116Y365075D01*
X714996Y366320D01*
X779073D01*
X805684Y339710D01*
Y310000D01*
X831457D01*
X838336Y303121D01*
X841413Y298515D01*
X850743Y289186D01*
X855705Y285870D01*
X861557Y284706D01*
X1012351D01*
X1024094Y272963D01*
Y265273D01*
X1026541Y256141D01*
X1031268Y247953D01*
X1037954Y241268D01*
X1046141Y236541D01*
X1055273Y234095D01*
X1064727D01*
X1073859Y236541D01*
X1082046Y241268D01*
X1088732Y247953D01*
X1093459Y256141D01*
X1095906Y265273D01*
Y274727D01*
X1093459Y283859D01*
X1088732Y292046D01*
X1082046Y298731D01*
X1073859Y303459D01*
X1064727Y305906D01*
X1055273D01*
X1046141Y303459D01*
X1040255Y300060D01*
X1029500Y310814D01*
X1024539Y314130D01*
X1018686Y315294D01*
X915172D01*
Y330669D01*
X886471D01*
Y335669D01*
X881471D01*
Y366339D01*
X857770D01*
Y362099D01*
X853085Y361339D01*
Y361339D01*
X827313D01*
X808194Y380457D01*
X810108Y385076D01*
X855648D01*
X856213Y380310D01*
Y380076D01*
X885000D01*
Y410000D01*
X895000D01*
Y380076D01*
X923787D01*
Y412976D01*
X928407Y414889D01*
X984110Y359186D01*
X989072Y355870D01*
X994924Y354706D01*
X1027370D01*
X1031268Y347954D01*
X1037954Y341269D01*
X1046141Y336541D01*
X1055273Y334094D01*
X1064727D01*
X1073859Y336541D01*
X1082046Y341269D01*
X1088732Y347954D01*
X1093459Y356141D01*
X1095906Y365273D01*
Y374727D01*
X1093459Y383859D01*
X1088732Y392046D01*
X1082046Y398731D01*
X1073859Y403459D01*
X1064727Y405906D01*
X1055273D01*
X1046141Y403459D01*
X1037954Y398731D01*
X1031268Y392046D01*
X1027370Y385294D01*
X1001259D01*
X930815Y455738D01*
X925853Y459054D01*
X920001Y460218D01*
X900530D01*
X895945Y461221D01*
Y480000D01*
D02*
G37*
G36*
X618425Y415000D02*
X565000D01*
Y355473D01*
X618425D01*
Y415000D01*
D02*
G37*
G36*
X555000D02*
X501575D01*
Y355473D01*
X555000D01*
Y415000D01*
D02*
G37*
G36*
X915172Y366339D02*
X891471D01*
Y340669D01*
X915172D01*
Y366339D01*
D02*
G37*
G36*
X236431Y289807D02*
X210665D01*
Y265000D01*
X236431D01*
Y289807D01*
D02*
G37*
G36*
X64727Y305906D02*
X55273D01*
X46141Y303459D01*
X37953Y298731D01*
X31268Y292046D01*
X26541Y283859D01*
X24095Y274727D01*
Y265273D01*
X26541Y256141D01*
X31268Y247953D01*
X37953Y241268D01*
X46141Y236541D01*
X55273Y234095D01*
X64727D01*
X73859Y236541D01*
X82046Y241268D01*
X88731Y247953D01*
X93459Y256141D01*
X94440Y259804D01*
X146249D01*
X215665Y190388D01*
Y155193D01*
X267197D01*
Y204807D01*
X230084D01*
X209015Y225876D01*
X211770Y230193D01*
X215208Y230193D01*
X236431D01*
Y255000D01*
X210665D01*
Y235057D01*
X210665Y231297D01*
X206349Y228543D01*
X157682Y277210D01*
X154374Y279420D01*
X150472Y280196D01*
X94440D01*
X93459Y283859D01*
X88731Y292046D01*
X82046Y298731D01*
X73859Y303459D01*
X64727Y305906D01*
D02*
G37*
%LPD*%
G36*
X436019Y647573D02*
Y522062D01*
X411177D01*
Y499270D01*
X402358D01*
X385294Y516335D01*
Y527035D01*
Y680000D01*
X385091Y681023D01*
Y691969D01*
X389710Y693883D01*
X436019Y647573D01*
D02*
G37*
G36*
X413417Y323291D02*
X414664Y321424D01*
X418797Y318663D01*
X423673Y317693D01*
X438568D01*
Y202988D01*
X391576Y155995D01*
X386968Y158458D01*
X387767Y162473D01*
Y304712D01*
X407428Y324373D01*
X413417Y323291D01*
D02*
G37*
D12*
X746695Y509567D02*
X986223Y749095D01*
X671236Y509567D02*
X746695D01*
X986223Y749095D02*
X1039094D01*
X945637Y670000D02*
X1060000D01*
X759614Y483976D02*
X945637Y670000D01*
X671236Y483976D02*
X759614D01*
X299528Y260000D02*
X314335Y274807D01*
Y304335D01*
X298569Y260000D02*
X299528D01*
X391614Y381614D02*
X448764D01*
X314335Y304335D02*
X391614Y381614D01*
X429002Y483976D02*
X429957Y484931D01*
X369797Y680203D02*
X370000Y680000D01*
X60000Y270000D02*
X150472D01*
X240472Y180000D01*
X241431D01*
X298569D02*
Y260000D01*
X240472Y660000D02*
X241431D01*
X60000Y570000D02*
X150472D01*
X240472Y660000D01*
X298569Y580000D02*
Y660000D01*
Y511431D02*
Y580000D01*
X351614Y458386D02*
X448764D01*
X298569Y511431D02*
X351614Y458386D01*
X672191Y355069D02*
X704931D01*
X671236Y356024D02*
X672191Y355069D01*
X704931D02*
X890000Y170000D01*
X696327Y330433D02*
X956761Y70000D01*
X1060000D01*
X671236Y330433D02*
X696327D01*
X890000Y170000D02*
X1060000D01*
X320000Y70000D02*
X448764Y198764D01*
Y330433D01*
X60000Y70000D02*
X320000D01*
D14*
X671236Y509567D02*
D03*
Y483976D02*
D03*
Y458386D02*
D03*
Y432795D02*
D03*
Y407205D02*
D03*
Y381614D02*
D03*
Y356024D02*
D03*
Y330433D02*
D03*
X448764D02*
D03*
Y356024D02*
D03*
Y381614D02*
D03*
Y407205D02*
D03*
Y432795D02*
D03*
Y458386D02*
D03*
Y483976D02*
D03*
D15*
Y509567D02*
D03*
D16*
X241431Y580000D02*
D03*
X298569D02*
D03*
X241431Y180000D02*
D03*
X298569D02*
D03*
X241431Y260000D02*
D03*
X298569D02*
D03*
X241431Y660000D02*
D03*
X298569D02*
D03*
D17*
X886471Y335669D02*
D03*
X829385D02*
D03*
D18*
X873150Y485000D02*
D03*
X820000D02*
D03*
D19*
X826861Y410000D02*
D03*
X890000D02*
D03*
D20*
X560000Y420000D02*
D03*
D22*
X1060000Y70000D02*
D03*
Y170000D02*
D03*
Y270000D02*
D03*
Y370000D02*
D03*
Y470000D02*
D03*
Y570000D02*
D03*
Y670000D02*
D03*
X60000Y70000D02*
D03*
Y170000D02*
D03*
Y270000D02*
D03*
Y370000D02*
D03*
Y470000D02*
D03*
Y570000D02*
D03*
Y670000D02*
D03*
D23*
X1060000Y770000D02*
D03*
X60000D02*
D03*
D24*
X820000Y485984D02*
X904016Y570000D01*
X1060000D01*
X820000Y485000D02*
Y485984D01*
X794370Y458386D02*
X820000Y484016D01*
Y485000D01*
X829385Y333701D02*
X852228Y310858D01*
Y309330D02*
Y310858D01*
Y309330D02*
X861557Y300000D01*
X1018686D01*
X1048686Y270000D01*
X829385Y333701D02*
Y335669D01*
X1048686Y270000D02*
X1060000D01*
X829385Y335669D02*
Y337638D01*
X785408Y381614D02*
X829385Y337638D01*
X671236Y381614D02*
X785408D01*
X1039094Y749095D02*
X1060000Y770000D01*
X671236Y458386D02*
X794370D01*
X826861Y410000D02*
X830724D01*
X840648Y419924D01*
Y425573D01*
X859999Y444924D01*
X920001D01*
X994924Y370000D01*
X1060000D01*
X672633Y408602D02*
X825463D01*
X826861Y410000D01*
X110000Y120000D02*
X330000D01*
X60000Y170000D02*
X110000Y120000D01*
X330000D02*
X372473Y162473D01*
Y311046D01*
X414945Y353519D01*
X446260D01*
X448764Y356024D01*
X71314Y370000D02*
X108519Y407205D01*
X448764D01*
X60000Y370000D02*
X71314D01*
X60000Y470000D02*
X71314D01*
X108519Y432795D02*
X448764D01*
X71314Y470000D02*
X108519Y432795D01*
X396024Y483976D02*
X429002D01*
X370000Y510000D02*
X396024Y483976D01*
X370000Y510000D02*
Y527035D01*
X60000Y670000D02*
X140000D01*
X200000Y730000D01*
X339797D01*
X369797Y700000D01*
Y680203D02*
Y700000D01*
X370000Y527035D02*
Y680000D01*
D25*
X60000Y770000D02*
X331616D01*
X448764Y652852D01*
Y509567D02*
Y652852D01*
M02*
