G04*
G04 #@! TF.GenerationSoftware,Altium Limited,Altium Designer,22.4.2 (48)*
G04*
G04 Layer_Color=2752767*
%FSLAX25Y25*%
%MOIN*%
G70*
G04*
G04 #@! TF.SameCoordinates,1BD04265-7303-4BE0-B696-FC490152C648*
G04*
G04*
G04 #@! TF.FilePolarity,Positive*
G04*
G01*
G75*
%ADD29C,0.00500*%
D29*
X104000Y5000D02*
Y9000D01*
X108000D01*
Y5000D01*
X104000D01*
Y15000D02*
Y19000D01*
X108000D01*
Y15000D01*
X104000D01*
Y25000D02*
Y29000D01*
X108000D01*
Y25000D01*
X104000D01*
Y35000D02*
Y39000D01*
X108000D01*
Y35000D01*
X104000D01*
Y45000D02*
Y49000D01*
X108000D01*
Y45000D01*
X104000D01*
Y55000D02*
Y59000D01*
X108000D01*
Y55000D01*
X104000D01*
Y65000D02*
Y69000D01*
X108000D01*
Y65000D01*
X104000D01*
Y75000D02*
Y79000D01*
X108000D01*
Y75000D01*
X104000D01*
X4000Y5000D02*
Y9000D01*
X8000D01*
Y5000D01*
X4000D01*
Y15000D02*
Y19000D01*
X8000D01*
Y15000D01*
X4000D01*
Y25000D02*
Y29000D01*
X8000D01*
Y25000D01*
X4000D01*
Y35000D02*
Y39000D01*
X8000D01*
Y35000D01*
X4000D01*
Y45000D02*
Y49000D01*
X8000D01*
Y45000D01*
X4000D01*
Y55000D02*
Y59000D01*
X8000D01*
Y55000D01*
X4000D01*
Y65000D02*
Y69000D01*
X8000D01*
Y65000D01*
X4000D01*
Y75000D02*
Y79000D01*
X8000D01*
Y75000D01*
X4000D01*
M02*
