G04*
G04 #@! TF.GenerationSoftware,Altium Limited,Altium Designer,22.4.2 (48)*
G04*
G04 Layer_Color=8421504*
%FSLAX25Y25*%
%MOIN*%
G70*
G04*
G04 #@! TF.SameCoordinates,1BD04265-7303-4BE0-B696-FC490152C648*
G04*
G04*
G04 #@! TF.FilePolarity,Positive*
G04*
G01*
G75*
%ADD13R,0.05918X0.07139*%
%ADD14R,0.03150X0.03740*%
%ADD15R,0.03150X0.03937*%
G04:AMPARAMS|DCode=16|XSize=65.17mil|YSize=14.99mil|CornerRadius=7.5mil|HoleSize=0mil|Usage=FLASHONLY|Rotation=0.000|XOffset=0mil|YOffset=0mil|HoleType=Round|Shape=RoundedRectangle|*
%AMROUNDEDRECTD16*
21,1,0.06517,0.00000,0,0,0.0*
21,1,0.05018,0.01499,0,0,0.0*
1,1,0.01499,0.02509,0.00000*
1,1,0.01499,-0.02509,0.00000*
1,1,0.01499,-0.02509,0.00000*
1,1,0.01499,0.02509,0.00000*
%
%ADD16ROUNDEDRECTD16*%
%ADD17R,0.06517X0.01499*%
%ADD18R,0.03740X0.04134*%
%ADD19R,0.02559X0.02756*%
%ADD20R,0.04758X0.03985*%
D13*
X56000Y42000D02*
D03*
D14*
X29461Y18000D02*
D03*
X24539D02*
D03*
X29461Y66000D02*
D03*
X24539D02*
D03*
D15*
X29953Y26000D02*
D03*
X24047D02*
D03*
X29953Y58000D02*
D03*
X24047D02*
D03*
D16*
X67124Y50957D02*
D03*
Y48398D02*
D03*
Y45839D02*
D03*
Y43279D02*
D03*
Y40720D02*
D03*
Y38161D02*
D03*
Y35602D02*
D03*
Y33043D02*
D03*
X44876D02*
D03*
Y35602D02*
D03*
Y38161D02*
D03*
Y40720D02*
D03*
Y43279D02*
D03*
Y45839D02*
D03*
Y48398D02*
D03*
D17*
Y50957D02*
D03*
D18*
X88647Y33567D02*
D03*
X82938D02*
D03*
D19*
X87315Y48500D02*
D03*
X82000D02*
D03*
D20*
X82686Y41000D02*
D03*
X89000D02*
D03*
M02*
