G04*
G04 #@! TF.GenerationSoftware,Altium Limited,Altium Designer,22.4.2 (48)*
G04*
G04 Layer_Color=128*
%FSLAX25Y25*%
%MOIN*%
G70*
G04*
G04 #@! TF.SameCoordinates,1BD04265-7303-4BE0-B696-FC490152C648*
G04*
G04*
G04 #@! TF.FilePolarity,Positive*
G04*
G01*
G75*
%ADD29C,0.00500*%
D29*
X103992Y7000D02*
X108008D01*
X106000Y4992D02*
Y9008D01*
X103992Y17000D02*
X108008D01*
X106000Y14992D02*
Y19008D01*
X103992Y27000D02*
X108008D01*
X106000Y24992D02*
Y29008D01*
X103992Y37000D02*
X108008D01*
X106000Y34992D02*
Y39008D01*
X103992Y47000D02*
X108008D01*
X106000Y44992D02*
Y49008D01*
X103992Y57000D02*
X108008D01*
X106000Y54992D02*
Y59008D01*
X103992Y67000D02*
X108008D01*
X106000Y64992D02*
Y69008D01*
X103992Y77000D02*
X108008D01*
X106000Y74992D02*
Y79008D01*
X3992Y7000D02*
X8008D01*
X6000Y4992D02*
Y9008D01*
X3992Y17000D02*
X8008D01*
X6000Y14992D02*
Y19008D01*
X3992Y27000D02*
X8008D01*
X6000Y24992D02*
Y29008D01*
X3992Y37000D02*
X8008D01*
X6000Y34992D02*
Y39008D01*
X3992Y47000D02*
X8008D01*
X6000Y44992D02*
Y49008D01*
X3992Y57000D02*
X8008D01*
X6000Y54992D02*
Y59008D01*
X3992Y67000D02*
X8008D01*
X6000Y64992D02*
Y69008D01*
X3992Y77000D02*
X8008D01*
X6000Y74992D02*
Y79008D01*
M02*
