%FSTAX23Y23*%
%MOIN*%
%SFA1B1*%

%IPPOS*%
%AMD16*
4,1,8,0.025100,0.007500,-0.025100,0.007500,-0.032600,0.000000,-0.032600,0.000000,-0.025100,-0.007500,0.025100,-0.007500,0.032600,0.000000,0.032600,0.000000,0.025100,0.007500,0.0*
1,1,0.015000,0.025100,0.000000*
1,1,0.015000,-0.025100,0.000000*
1,1,0.015000,-0.025100,0.000000*
1,1,0.015000,0.025100,0.000000*
%
G04~CAMADD=16~8~0.0~0.0~651.7~149.9~75.0~0.0~15~0.0~0.0~0.0~0.0~0~0.0~0.0~0.0~0.0~0~0.0~0.0~0.0~0.0~651.7~149.9*
%ADD16D16*%
%ADD17R,0.065170X0.014990*%
%ADD19R,0.025590X0.027560*%
%ADD20R,0.047580X0.039850*%
%ADD21R,0.039500X0.045400*%
%ADD22R,0.039500X0.047370*%
%ADD23R,0.096850X0.109060*%
%ADD24R,0.045400X0.049340*%
%ADD25C,0.061810*%
%ADD26R,0.061810X0.061810*%
%LNdrv8833_dev_soldermask_top-1*%
%LPD*%
G54D16*
X00671Y00509D03*
Y00483D03*
Y00458D03*
Y00432D03*
Y00407D03*
Y00381D03*
Y00356D03*
Y0033D03*
X00448D03*
Y00356D03*
Y00381D03*
Y00407D03*
Y00432D03*
Y00458D03*
Y00483D03*
G54D17*
X00448Y00509D03*
G54D19*
X00873Y00485D03*
X0082D03*
G54D20*
X00826Y0041D03*
X0089D03*
G54D21*
X00294Y0018D03*
X00245D03*
X00294Y0066D03*
X00245D03*
G54D22*
X00299Y0026D03*
X0024D03*
X00299Y0058D03*
X0024D03*
G54D23*
X0056Y0042D03*
G54D24*
X00886Y00335D03*
X00829D03*
G54D25*
X0106Y0007D03*
Y0017D03*
Y0027D03*
Y0037D03*
Y0047D03*
Y0057D03*
Y0067D03*
X0006Y0007D03*
Y0017D03*
Y0027D03*
Y0037D03*
Y0047D03*
Y0057D03*
Y0067D03*
G54D26*
X0106Y0077D03*
X0006D03*
M02*