%FSTAX23Y23*%
%MOIN*%
%SFA1B1*%

%IPPOS*%
%ADD10C,0.009842*%
%ADD11C,0.007874*%
%ADD12C,0.010000*%
%LNdrv8833_dev_legend_top-1*%
%LPD*%
G54D10*
X00401Y00509D02*
D01*
X00401Y00509*
X00401Y0051*
X00401Y0051*
X00401Y0051*
X00401Y00511*
X004Y00511*
X004Y00511*
X004Y00512*
X004Y00512*
X004Y00512*
X004Y00512*
X00399Y00513*
X00399Y00513*
X00399Y00513*
X00398Y00513*
X00398Y00513*
X00398Y00514*
X00398Y00514*
X00397Y00514*
X00397Y00514*
X00397Y00514*
X00396Y00514*
X00396*
X00395Y00514*
X00395Y00514*
X00395Y00514*
X00394Y00514*
X00394Y00514*
X00394Y00513*
X00394Y00513*
X00393Y00513*
X00393Y00513*
X00393Y00513*
X00392Y00512*
X00392Y00512*
X00392Y00512*
X00392Y00512*
X00392Y00511*
X00391Y00511*
X00391Y00511*
X00391Y0051*
X00391Y0051*
X00391Y0051*
X00391Y00509*
X00391Y00509*
X00391Y00509*
X00391Y00508*
X00391Y00508*
X00391Y00508*
X00391Y00507*
X00391Y00507*
X00392Y00507*
X00392Y00506*
X00392Y00506*
X00392Y00506*
X00392Y00506*
X00393Y00505*
X00393Y00505*
X00393Y00505*
X00394Y00505*
X00394Y00505*
X00394Y00505*
X00394Y00504*
X00395Y00504*
X00395Y00504*
X00395Y00504*
X00396Y00504*
X00396*
X00397Y00504*
X00397Y00504*
X00397Y00504*
X00398Y00504*
X00398Y00505*
X00398Y00505*
X00398Y00505*
X00399Y00505*
X00399Y00505*
X00399Y00505*
X004Y00506*
X004Y00506*
X004Y00506*
X004Y00506*
X004Y00507*
X004Y00507*
X00401Y00507*
X00401Y00508*
X00401Y00508*
X00401Y00508*
X00401Y00509*
X00401Y00509*
X01064Y00853D02*
D01*
X01064Y00853*
X01064Y00854*
X01064Y00854*
X01064Y00854*
X01064Y00855*
X01064Y00855*
X01064Y00855*
X01064Y00856*
X01063Y00856*
X01063Y00856*
X01063Y00856*
X01063Y00857*
X01063Y00857*
X01062Y00857*
X01062Y00857*
X01062Y00857*
X01061Y00858*
X01061Y00858*
X01061Y00858*
X0106Y00858*
X0106Y00858*
X0106Y00858*
X01059*
X01059Y00858*
X01059Y00858*
X01058Y00858*
X01058Y00858*
X01058Y00858*
X01057Y00857*
X01057Y00857*
X01057Y00857*
X01056Y00857*
X01056Y00857*
X01056Y00856*
X01056Y00856*
X01056Y00856*
X01055Y00856*
X01055Y00855*
X01055Y00855*
X01055Y00855*
X01055Y00854*
X01055Y00854*
X01055Y00854*
X01055Y00853*
X01055Y00853*
X01055Y00853*
X01055Y00852*
X01055Y00852*
X01055Y00852*
X01055Y00851*
X01055Y00851*
X01055Y00851*
X01055Y0085*
X01056Y0085*
X01056Y0085*
X01056Y0085*
X01056Y00849*
X01056Y00849*
X01057Y00849*
X01057Y00849*
X01057Y00849*
X01058Y00848*
X01058Y00848*
X01058Y00848*
X01059Y00848*
X01059Y00848*
X01059Y00848*
X0106*
X0106Y00848*
X0106Y00848*
X01061Y00848*
X01061Y00848*
X01061Y00848*
X01062Y00849*
X01062Y00849*
X01062Y00849*
X01063Y00849*
X01063Y00849*
X01063Y0085*
X01063Y0085*
X01063Y0085*
X01064Y0085*
X01064Y00851*
X01064Y00851*
X01064Y00851*
X01064Y00852*
X01064Y00852*
X01064Y00852*
X01064Y00853*
X01064Y00853*
X00064D02*
D01*
X00064Y00853*
X00064Y00854*
X00064Y00854*
X00064Y00854*
X00064Y00855*
X00064Y00855*
X00064Y00855*
X00064Y00856*
X00063Y00856*
X00063Y00856*
X00063Y00856*
X00063Y00857*
X00063Y00857*
X00062Y00857*
X00062Y00857*
X00062Y00857*
X00061Y00858*
X00061Y00858*
X00061Y00858*
X0006Y00858*
X0006Y00858*
X0006Y00858*
X00059*
X00059Y00858*
X00059Y00858*
X00058Y00858*
X00058Y00858*
X00058Y00858*
X00057Y00857*
X00057Y00857*
X00057Y00857*
X00056Y00857*
X00056Y00857*
X00056Y00856*
X00056Y00856*
X00056Y00856*
X00055Y00856*
X00055Y00855*
X00055Y00855*
X00055Y00855*
X00055Y00854*
X00055Y00854*
X00055Y00854*
X00055Y00853*
X00055Y00853*
X00055Y00853*
X00055Y00852*
X00055Y00852*
X00055Y00852*
X00055Y00851*
X00055Y00851*
X00055Y00851*
X00055Y0085*
X00056Y0085*
X00056Y0085*
X00056Y0085*
X00056Y00849*
X00056Y00849*
X00057Y00849*
X00057Y00849*
X00057Y00849*
X00058Y00848*
X00058Y00848*
X00058Y00848*
X00059Y00848*
X00059Y00848*
X00059Y00848*
X0006*
X0006Y00848*
X0006Y00848*
X00061Y00848*
X00061Y00848*
X00061Y00848*
X00062Y00849*
X00062Y00849*
X00062Y00849*
X00063Y00849*
X00063Y00849*
X00063Y0085*
X00063Y0085*
X00063Y0085*
X00064Y0085*
X00064Y00851*
X00064Y00851*
X00064Y00851*
X00064Y00852*
X00064Y00852*
X00064Y00852*
X00064Y00853*
X00064Y00853*
G54D11*
X00461Y00555D02*
X00658D01*
X00461Y00284D02*
X00658D01*
X0022Y00544D02*
X00319D01*
X0022Y00615D02*
X00319D01*
X00813Y00514D02*
X0088D01*
X00813Y00455D02*
X0088D01*
X0022Y00144D02*
X00319D01*
X0022Y00215D02*
X00319D01*
X0022Y00224D02*
X00319D01*
X0022Y00295D02*
X00319D01*
X0022Y00624D02*
X00319D01*
X0022Y00695D02*
X00319D01*
X00803Y00374D02*
X00913D01*
X00803Y00445D02*
X00913D01*
X01008Y00829D02*
X01111D01*
X01008Y0001D02*
Y00829D01*
Y0001D02*
X01111D01*
Y00829*
X00008D02*
X00111D01*
X00008Y0001D02*
Y00829D01*
Y0001D02*
X00111D01*
Y00829*
G54D12*
X00413Y00634D02*
Y00585D01*
X00438*
X00446Y00593*
Y00626*
X00438Y00634*
X00413*
X00463Y00585D02*
Y00634D01*
X00488*
X00496Y00626*
Y0061*
X00488Y00601*
X00463*
X0048D02*
X00496Y00585D01*
X00513Y00634D02*
Y00601D01*
X0053Y00585*
X00546Y00601*
Y00634*
X00563Y00626D02*
X00571Y00634D01*
X00588*
X00596Y00626*
Y00618*
X00588Y0061*
X00596Y00601*
Y00593*
X00588Y00585*
X00571*
X00563Y00593*
Y00601*
X00571Y0061*
X00563Y00618*
Y00626*
X00571Y0061D02*
X00588D01*
X00613Y00626D02*
X00621Y00634D01*
X00638*
X00646Y00626*
Y00618*
X00638Y0061*
X00646Y00601*
Y00593*
X00638Y00585*
X00621*
X00613Y00593*
Y00601*
X00621Y0061*
X00613Y00618*
Y00626*
X00621Y0061D02*
X00638D01*
X00663Y00626D02*
X00671Y00634D01*
X00688*
X00696Y00626*
Y00618*
X00688Y0061*
X00679*
X00688*
X00696Y00601*
Y00593*
X00688Y00585*
X00671*
X00663Y00593*
X00713Y00626D02*
X00721Y00634D01*
X00738*
X00746Y00626*
Y00618*
X00738Y0061*
X00729*
X00738*
X00746Y00601*
Y00593*
X00738Y00585*
X00721*
X00713Y00593*
X00221Y0047D02*
Y00529D01*
X00251*
X00261Y00519*
Y005*
X00251Y0049*
X00221*
X00241D02*
X00261Y0047D01*
X00321D02*
X00281D01*
X00321Y00509*
Y00519*
X00311Y00529*
X00291*
X00281Y00519*
X00846Y00275D02*
X00836Y00285D01*
X00816*
X00806Y00275*
Y00235*
X00816Y00225*
X00836*
X00846Y00235*
X00866Y00275D02*
X00876Y00285D01*
X00896*
X00906Y00275*
Y00265*
X00896Y00255*
X00886*
X00896*
X00906Y00245*
Y00235*
X00896Y00225*
X00876*
X00866Y00235*
X00843Y00574D02*
X00833Y00584D01*
X00813*
X00803Y00574*
Y00535*
X00813Y00525*
X00833*
X00843Y00535*
X00863Y00525D02*
X00883D01*
X00873*
Y00584*
X00863Y00574*
X00218Y0007D02*
Y00129D01*
X00248*
X00258Y00119*
Y001*
X00248Y0009*
X00218*
X00238D02*
X00258Y0007D01*
X00308D02*
Y00129D01*
X00278Y001*
X00318*
X0022Y0031D02*
Y00369D01*
X0025*
X0026Y00359*
Y0034*
X0025Y0033*
X0022*
X0024D02*
X0026Y0031D01*
X00279Y00359D02*
X00289Y00369D01*
X00309*
X00319Y00359*
Y00349*
X00309Y0034*
X00299*
X00309*
X00319Y0033*
Y0032*
X00309Y0031*
X00289*
X00279Y0032*
X0023Y0071D02*
Y00769D01*
X0026*
X0027Y00759*
Y0074*
X0026Y0073*
X0023*
X0025D02*
X0027Y0071D01*
X00289D02*
X00309D01*
X00299*
Y00769*
X00289Y00759*
M02*